<svg id="Calque_1" data-name="Calque 1" xmlns="http://www.w3.org/2000/svg" viewBox="0 0 315.84 58.38"><defs><style>.cls-1{fill:#fff;}</style></defs><title>myCANAL2_logo</title><path class="cls-1" d="M176.4,3.38a.54.54,0,0,0-.56-.44H161.48c-.34,0-.46,0-.62.32l-22.34,45c-.22.43,0,.56.25.56h13a.63.63,0,0,0,.57-.43l3.11-6.71c.21-.45.55-.87.94-.87h15.68c.14,0,.18,0,.22.17s1.79,7.31,1.83,7.47c.09.32.21.37.5.37h11.07a.32.32,0,0,0,.3-.43c0-.24-9.51-44.7-9.57-45m-6.07,27.45h-9c-.44,0-.45-.06-.34-.32l6.23-14.12c.06-.14.14-.22.19,0s3.09,13.93,3.13,14.14,0,.29-.18.29M137,36.07a4.46,4.46,0,0,0-1.45.5,22.23,22.23,0,0,1-8.2,1.92,14.11,14.11,0,0,1-9.33-3c-3.55-3-5.2-8-3.61-13.92,1.77-6.71,7.94-9.7,13.35-9.7a20.55,20.55,0,0,1,11.71,3.56c.8.57,1.17.79,1.33-.06s1.61-8.46,1.86-9.7c.15-.73.13-.78-.08-1a18.94,18.94,0,0,0-6.22-3.06A31.81,31.81,0,0,0,121.89.51a25.57,25.57,0,0,0-15.76,8.67,28,28,0,0,0-4.81,24.16,22.13,22.13,0,0,0,20.12,16.59c1.57.13,7.64.59,13.21-1.79.45-.19.55-.5.66-1.12l1.78-10.19c.13-.57,0-.73-.07-.76M239.38,2.93H227.31c-.24,0-.34,0-.38.27s-3.61,25-3.61,25c-.12.56-.31.56-.31.56s-.18.06-.44-.44l-14.26-25a.5.5,0,0,0-.5-.32h-12.7a.51.51,0,0,0-.51.46c0,.1-6.22,44.62-6.25,44.81a.52.52,0,0,0,.45.6h11.46c.17,0,.31,0,.35-.24.09-.64,3.92-27.71,4-27.92s.18-.29.31-.06l15.8,28c.09.16.12.18.34.18h11.56a.52.52,0,0,0,.55-.47c0-.28,6.42-44.86,6.45-45.07s-.09-.32-.2-.32m76,34.51H302.67a.42.42,0,0,1-.42-.41V3.35a.42.42,0,0,0-.41-.41H289.21a.41.41,0,0,0-.41.41v45a.41.41,0,0,0,.41.41h26.22a.42.42,0,0,0,.41-.41V37.86a.42.42,0,0,0-.41-.41M267.5,3.28a.58.58,0,0,0-.5-.34H254.77a.58.58,0,0,0-.5.34L236.91,48.46a.23.23,0,0,0,.24.34H249a.56.56,0,0,0,.51-.33l2.85-7.27a.59.59,0,0,1,.51-.35h15.71a.58.58,0,0,1,.5.35l2.73,7.26a.57.57,0,0,0,.5.35h12a.24.24,0,0,0,.24-.35Zm-2.21,28.53h-9.13a.24.24,0,0,1-.25-.34l4.75-13.86c.07-.19.17-.19.24,0l4.64,13.85a.25.25,0,0,1-.25.34"/><path class="cls-1" d="M49.39,28.37c10.56-.31,11.77-13.06,13.3-21.05l-5.38-.1c.76,5.56,1.77,13.36,6.8,16.91,3.4,2.4,7.59,1.67,10.74-.75,5.47-4.2,11.83-15.1,8.16-22C82.19-.24,78.8-.6,78,1.22c-5.25,12.28,2.8,25.72,1.32,38.44-.55,4.73-2.51,10.85-6.5,13.8-3.62,2.67-7.58-1.34-6.73-5s4.5-7.26,7.14-9.94A125.32,125.32,0,0,1,85.33,28c6.67-5.23,5.62-3.48,12-9,2.32-2-2.19-4-4-3-1.29.73-2.75,2.78-4,3.52-3,1.67.79,4.25,3.08,3,1.29-.73,3.15-2.41,4.45-3.14l-4-3c-7.89,6.78-8.54,6-16.57,12.64C70.7,33.75,58.55,42.83,60.69,51.64c1.1,4.53,6.78,6.71,10.92,6.74,5.45,0,9.06-5.58,10.94-9.94,2.35-5.45,2.68-11.21,2.21-17C84,22.2,79.25,11.94,83.1,2.93l-5-.11c2.46,4.66-2.49,12.54-5.42,15.88-1.19,1.35-3.52,3.81-5.34,2.26-3.58-3-4.11-9.94-4.69-14.2-.33-2.4-4.92-2.47-5.38-.1-1,5.23-1.65,17.4-8.86,17.62-3.59.11-2.1,4.18,1,4.09"/><path class="cls-1" d="M5.45,46.35C5.46,33,6.92,19.55,12.4,7.28l-5,.48c8.4,9.17,8.15,23.53,8.67,35.21.12,2.73,5.51,2.74,5.45,0-.25-10.49,3.17-23,8.27-32.1l-5,.48C28.08,14.54,29,20.48,30,24.7c1.15,4.51,1.85,9.33,3.66,13.64.8,1.91,4.54,2.14,5.25,0,2.71-8.12,3.54-17.78,7.79-25.27l-5-.5C43.21,16.39,43.36,21,44,25c.78,5,1.39,10.12,2.92,14.92.79,2.49,6.15,1.72,5.26-1.08-1.53-4.8-2.11-9.93-2.89-14.89-.63-4-.81-8.6-2.26-12.42-.64-1.7-4-2.18-5-.5-4.49,7.91-5.49,17.69-8.35,26.25h5.25C37,32.64,36.26,27.42,35,22.57c-1.1-4.3-2.18-10-5.49-13.27a3.14,3.14,0,0,0-5,.48C19.3,19.2,15.83,32.14,16.09,43h5.45C21,30.58,21,15.45,12.13,5.7,10.84,4.3,8,4.26,7.15,6.18,1.54,18.75,0,32.69,0,46.34c0,2.73,5.45,2.74,5.45,0"/></svg>